/* XPM */
static char * stock_post_message_xpm[] = {
"48 48 602 2",
"  	c None",
". 	c #000000",
"+ 	c #D3D3D3",
"@ 	c #F6F6F6",
"# 	c #FFFFFF",
"$ 	c #E9E9E9",
"% 	c #D6D6D6",
"& 	c #AFAFAE",
"* 	c #DEDEDE",
"= 	c #F1F1F1",
"- 	c #C2C2C2",
"; 	c #FEFEFE",
"> 	c #FDFDFD",
", 	c #F7F7F7",
"' 	c #A7A7A7",
") 	c #AFAFAF",
"! 	c #FCFCFB",
"~ 	c #FBFBFB",
"{ 	c #EAEAEA",
"] 	c #A9A9A9",
"^ 	c #FAFAFA",
"/ 	c #FAFAF9",
"( 	c #F9F9F8",
"_ 	c #F7F7F6",
": 	c #E7E7E7",
"< 	c #A2A2A2",
"[ 	c #AAAAAA",
"} 	c #FBFBFA",
"| 	c #F8F8F8",
"1 	c #F8F8F7",
"2 	c #F6F6F5",
"3 	c #F6F5F4",
"4 	c #F5F4F3",
"5 	c #F9F8F8",
"6 	c #F8F7F7",
"7 	c #F8F7F6",
"8 	c #F5F3F2",
"9 	c #F4F3F2",
"0 	c #F4F3F1",
"a 	c #F3F2F0",
"b 	c #D5D5D5",
"c 	c #A8A8A8",
"d 	c #F9F9F9",
"e 	c #F9F8F7",
"f 	c #F7F6F6",
"g 	c #F7F6F5",
"h 	c #F2F1F0",
"i 	c #F2F1EF",
"j 	c #F1F0EF",
"k 	c #F0EFEE",
"l 	c #E3E3E3",
"m 	c #CDCDCD",
"n 	c #BFBFBF",
"o 	c #444444",
"p 	c #FAF9F9",
"q 	c #F6F6F4",
"r 	c #F5F5F4",
"s 	c #F4F4F3",
"t 	c #F3F3F2",
"u 	c #F1F1EF",
"v 	c #F0F0EE",
"w 	c #F0EFED",
"x 	c #EFEFED",
"y 	c #EEEEEB",
"z 	c #A4A4A3",
"A 	c #EFEFEF",
"B 	c #DCDCDC",
"C 	c #C0C0BF",
"D 	c #8B8B8A",
"E 	c #F8F8F6",
"F 	c #F4F4F4",
"G 	c #F3F3F1",
"H 	c #F3F3F0",
"I 	c #F1F1F0",
"J 	c #EFEFEC",
"K 	c #EFEEEC",
"L 	c #EEEEEC",
"M 	c #EDEDEB",
"N 	c #EDECEA",
"O 	c #EDEBE9",
"P 	c #9E9E9E",
"Q 	c #F5F5F3",
"R 	c #F4F4F2",
"S 	c #F2F2F0",
"T 	c #F1F0F0",
"U 	c #F0EFEC",
"V 	c #EEEDEC",
"W 	c #EDECE9",
"X 	c #EBEBE9",
"Y 	c #EBEAE7",
"Z 	c #EAE9E6",
"` 	c #E9E8E6",
" .	c #E1E0DE",
"..	c #CECDCB",
"+.	c #C0BFBD",
"@.	c #B5B4B1",
"#.	c #AEADAC",
"$.	c #9F9E9B",
"%.	c #90908D",
"&.	c #868583",
"*.	c #706E6D",
"=.	c #5B5851",
"-.	c #F2F2F1",
";.	c #F1F0EE",
">.	c #EFEFEE",
",.	c #EFEDED",
"'.	c #EFEDEC",
").	c #EEECEB",
"!.	c #EDECEB",
"~.	c #ECEBE8",
"{.	c #ECEAE8",
"].	c #EBEAE8",
"^.	c #EBE9E7",
"/.	c #EAEAE7",
"(.	c #E8E7E4",
"_.	c #DFDEDB",
":.	c #D4D3D0",
"<.	c #C8C6C3",
"[.	c #BCBBB8",
"}.	c #ADACA9",
"|.	c #A9A9A6",
"1.	c #A4A4A2",
"2.	c #999894",
"3.	c #78766D",
"4.	c #A0A0A0",
"5.	c #F5F4F2",
"6.	c #F0F0EF",
"7.	c #ECECEB",
"8.	c #EAE9E7",
"9.	c #E7E6E3",
"0.	c #E7E7E5",
"a.	c #E8E8E6",
"b.	c #E9E8E7",
"c.	c #EEEDEB",
"d.	c #EDEDEA",
"e.	c #ECEBE9",
"f.	c #EBEAE9",
"g.	c #E9E7E5",
"h.	c #E9E7E4",
"i.	c #E3E2DF",
"j.	c #D9D7D5",
"k.	c #D0CECC",
"l.	c #CBCAC8",
"m.	c #C1C0BC",
"n.	c #B0AFAD",
"o.	c #A9A7A5",
"p.	c #7D7972",
"q.	c #3F0505",
"r.	c #EC755D",
"s.	c #ED694C",
"t.	c #510F06",
"u.	c #6F0909",
"v.	c #8E0C0C",
"w.	c #7E7E7C",
"x.	c #E9E9E7",
"y.	c #161616",
"z.	c #151515",
"A.	c #848482",
"B.	c #E0E0DE",
"C.	c #E1E0DF",
"D.	c #E5E4E4",
"E.	c #E8E7E6",
"F.	c #ECECE9",
"G.	c #EBE9E8",
"H.	c #E9E9E6",
"I.	c #E9E8E5",
"J.	c #DDDCD8",
"K.	c #D9D7D4",
"L.	c #CBCAC7",
"M.	c #C3C2BE",
"N.	c #B2B1AD",
"O.	c #7B766D",
"P.	c #F3A390",
"Q.	c #F3A995",
"R.	c #F3A792",
"S.	c #EF816C",
"T.	c #934343",
"U.	c #A00E0E",
"V.	c #B30F0F",
"W.	c #AD1E1E",
"X.	c #E52C13",
"Y.	c #0C0C0B",
"Z.	c #7B7B79",
"`.	c #D2D1D0",
" +	c #D7D7D4",
".+	c #DDDDDB",
"++	c #ECEAE9",
"@+	c #ECEAE7",
"#+	c #EAE8E5",
"$+	c #E9E8E4",
"%+	c #E8E7E3",
"&+	c #E8E6E3",
"*+	c #E5E3E0",
"=+	c #E2E0DD",
"-+	c #DBDAD6",
";+	c #D5D4D0",
">+	c #CBC9C5",
",+	c #C6C4BF",
"'+	c #928D83",
")+	c #B75F4B",
"!+	c #F7BFAC",
"~+	c #F5AC9B",
"{+	c #F39E87",
"]+	c #EE7257",
"^+	c #AD2D0F",
"/+	c #623535",
"(+	c #D01212",
"_+	c #414140",
":+	c #949291",
"<+	c #C5C5C4",
"[+	c #D2D2CF",
"}+	c #D9D9D7",
"|+	c #E2E0DF",
"1+	c #E8E6E4",
"2+	c #EBEAE6",
"3+	c #EBEBE7",
"4+	c #EBE9E6",
"5+	c #EAE9E5",
"6+	c #E7E5E2",
"7+	c #E4E3E0",
"8+	c #E2E0DC",
"9+	c #DEDCD8",
"0+	c #DBD9D5",
"a+	c #D3D0CD",
"b+	c #CDCAC6",
"c+	c #969085",
"d+	c #F39C8B",
"e+	c #F5AE95",
"f+	c #F2967F",
"g+	c #EE7454",
"h+	c #EB5E41",
"i+	c #EC5222",
"j+	c #BF1515",
"k+	c #990D0D",
"l+	c #020202",
"m+	c #D85D38",
"n+	c #292928",
"o+	c #B2B0AF",
"p+	c #C3C1BE",
"q+	c #D2D1CD",
"r+	c #DBDAD7",
"s+	c #E2E0DE",
"t+	c #E7E5E3",
"u+	c #EAE7E5",
"v+	c #E6E5E2",
"w+	c #E4E2DF",
"x+	c #E1E0DC",
"y+	c #DEDDD9",
"z+	c #D9D6D2",
"A+	c #A09A90",
"B+	c #F3A48F",
"C+	c #F4AB98",
"D+	c #ED6B4C",
"E+	c #EF744F",
"F+	c #EE6940",
"G+	c #050505",
"H+	c #AF2D2D",
"I+	c #A20E0E",
"J+	c #811C1B",
"K+	c #ED5E32",
"L+	c #BE5332",
"M+	c #0D0D0D",
"N+	c #1D1D1C",
"O+	c #2C2C2B",
"P+	c #353534",
"Q+	c #4C4C4B",
"R+	c #BFBEBC",
"S+	c #E4E3E1",
"T+	c #E7E7E4",
"U+	c #E7E6E4",
"V+	c #E7E6E2",
"W+	c #E6E4E1",
"X+	c #E4E2DE",
"Y+	c #E2DFDC",
"Z+	c #DFDDD9",
"`+	c #DDDBD8",
" @	c #DCDAD6",
".@	c #D9D8D3",
"+@	c #A29C91",
"@@	c #F3A28D",
"#@	c #F18E78",
"$@	c #F07650",
"%@	c #EC5F3D",
"&@	c #EE663C",
"*@	c #932121",
"=@	c #86302C",
"-@	c #A21616",
";@	c #080807",
">@	c #676767",
",@	c #B5B5B5",
"'@	c #909090",
")@	c #535353",
"!@	c #656463",
"~@	c #C3C2C0",
"{@	c #E5E4E2",
"]@	c #E1DFDB",
"^@	c #DEDDD8",
"/@	c #DDDAD6",
"(@	c #DBD9D4",
"_@	c #F39A7F",
":@	c #EB5C3A",
"<@	c #ED643A",
"[@	c #EB481D",
"}@	c #7F0B0B",
"|@	c #650E0E",
"1@	c #C52211",
"2@	c #2B2B2B",
"3@	c #2C2C2C",
"4@	c #20201F",
"5@	c #383837",
"6@	c #A3A3A1",
"7@	c #E0DFDC",
"8@	c #E5E4E1",
"9@	c #E6E6E1",
"0@	c #E3E2DE",
"a@	c #E1DEDB",
"b@	c #DCDAD5",
"c@	c #A49E93",
"d@	c #F08977",
"e@	c #E83214",
"f@	c #640808",
"g@	c #700A0A",
"h@	c #580808",
"i@	c #010101",
"j@	c #650909",
"k@	c #870B0B",
"l@	c #820F0F",
"m@	c #181717",
"n@	c #333232",
"o@	c #464645",
"p@	c #737372",
"q@	c #8C8B89",
"r@	c #C6C4C1",
"s@	c #E7E5E1",
"t@	c #E6E5E0",
"u@	c #E6E4E0",
"v@	c #E5E3DF",
"w@	c #E3E1DD",
"x@	c #E0DFDB",
"y@	c #DDDCD7",
"z@	c #DCD9D5",
"A@	c #DBD8D4",
"B@	c #C15B3F",
"C@	c #3B2121",
"D@	c #530707",
"E@	c #440606",
"F@	c #4A0909",
"G@	c #333331",
"H@	c #616160",
"I@	c #666564",
"J@	c #838280",
"K@	c #B3B2B0",
"L@	c #D5D4D1",
"M@	c #E4E3DF",
"N@	c #E7E6E1",
"O@	c #E6E5E1",
"P@	c #E5E4E0",
"Q@	c #E0DEDA",
"R@	c #DDDBD7",
"S@	c #DAD9D3",
"T@	c #CB2311",
"U@	c #611B1B",
"V@	c #220A0A",
"W@	c #230303",
"X@	c #3D0505",
"Y@	c #090908",
"Z@	c #252524",
"`@	c #5F5F5E",
" #	c #72716F",
".#	c #868684",
"+#	c #CECCCA",
"@#	c #E3E1DE",
"##	c #E3E0DD",
"$#	c #DFDEDA",
"%#	c #DEDDD7",
"&#	c #DDDCD6",
"*#	c #600C07",
"=#	c #D53914",
"-#	c #C91910",
";#	c #1D0303",
">#	c #110404",
",#	c #464646",
"'#	c #797977",
")#	c #0B0B0A",
"!#	c #0A0A0A",
"~#	c #0A0A09",
"{#	c #2A2929",
"]#	c #706F6E",
"^#	c #A8A7A5",
"/#	c #C5C3C1",
"(#	c #D4D4D1",
"_#	c #DFDDDA",
":#	c #E6E3E0",
"<#	c #E0DED9",
"[#	c #DBD8D3",
"}#	c #888885",
"|#	c #9A9897",
"1#	c #898887",
"2#	c #7C7C7A",
"3#	c #787775",
"4#	c #767674",
"5#	c #757472",
"6#	c #817F7E",
"7#	c #8F8E8C",
"8#	c #A3A3A0",
"9#	c #BDBCB9",
"0#	c #CFCECA",
"a#	c #DCDAD7",
"b#	c #E2E0DB",
"c#	c #DDDBD6",
"d#	c #CECECE",
"e#	c #B0B0AD",
"f#	c #A1A19E",
"g#	c #959593",
"h#	c #8D8D8B",
"i#	c #989794",
"j#	c #A2A19E",
"k#	c #B2B0AE",
"l#	c #C1BFBD",
"m#	c #CFCDCA",
"n#	c #DBD9D6",
"o#	c #E1E0DD",
"p#	c #E4E2E0",
"q#	c #E6E4E2",
"r#	c #E7E4E1",
"s#	c #E4E2DD",
"t#	c #DFDED9",
"u#	c #DEDBD7",
"v#	c #DAD8D4",
"w#	c #BABAB8",
"x#	c #B1B0AE",
"y#	c #AAA9A6",
"z#	c #A6A6A3",
"A#	c #ABAAA8",
"B#	c #B1AFAD",
"C#	c #B9B7B5",
"D#	c #C4C2C0",
"E#	c #CDCBC8",
"F#	c #D5D3D1",
"G#	c #DDDDDA",
"H#	c #CECCC9",
"I#	c #10100F",
"J#	c #E4E3DE",
"K#	c #E0E0E0",
"L#	c #C7C7C5",
"M#	c #C2C1BF",
"N#	c #BEBDBB",
"O#	c #BEBDBC",
"P#	c #CAC9C6",
"Q#	c #D0CFCB",
"R#	c #D7D6D3",
"S#	c #A09F9D",
"T#	c #3E3D3C",
"U#	c #E5E4DF",
"V#	c #E3E2DD",
"W#	c #E0DFDA",
"X#	c #DFDDD8",
"Y#	c #DDDAD5",
"Z#	c #DAD8D3",
"`#	c #D3D2D0",
" $	c #CFCECB",
".$	c #CECDCA",
"+$	c #D3D2CF",
"@$	c #D5D3D2",
"#$	c #D9D8D6",
"$$	c #6C6B69",
"%$	c #858481",
"&$	c #292828",
"*$	c #060606",
"=$	c #1C1C1B",
"-$	c #8D8D8A",
";$	c #D2D0CC",
">$	c #535351",
",$	c #101010",
"'$	c #060605",
")$	c #3F3E3D",
"!$	c #AEACA8",
"~$	c #DAD7D3",
"{$	c #F2F2F2",
"]$	c #DBDBD8",
"^$	c #D9D8D5",
"/$	c #D9D8D4",
"($	c #DAD8D6",
"_$	c #DCDBD8",
":$	c #E0DEDB",
"<$	c #E2E1DD",
"[$	c #444342",
"}$	c #999896",
"|$	c #585756",
"1$	c #424241",
"2$	c #BAB8B5",
"3$	c #B5B4B0",
"4$	c #50504E",
"5$	c #E2E1DC",
"6$	c #41413F",
"7$	c #71706E",
"8$	c #CFCCC8",
"9$	c #D3D0CC",
"0$	c #8A8A87",
"a$	c #555452",
"b$	c #DAD9D4",
"c$	c #D9D7D2",
"d$	c #DFDDDB",
"e$	c #DEDDDB",
"f$	c #E1DFDC",
"g$	c #E2E1DE",
"h$	c #161615",
"i$	c #959591",
"j$	c #333332",
"k$	c #E1DFDA",
"l$	c #DCD9D4",
"m$	c #DBD9D3",
"n$	c #DAD9D2",
"o$	c #D9D8D2",
"p$	c #A19C90",
"q$	c #E5E2DF",
"r$	c #CACAC5",
"s$	c #0F0F0F",
"t$	c #E2DFDB",
"u$	c #373735",
"v$	c #A4A29F",
"w$	c #E1DEDA",
"x$	c #E0DDD9",
"y$	c #424140",
"z$	c #141414",
"A$	c #575654",
"B$	c #989693",
"C$	c #DAD8D2",
"D$	c #D9D6D1",
"E$	c #D8D6D1",
"F$	c #A19B90",
"G$	c #E4E1DE",
"H$	c #E3E1DC",
"I$	c #E3E0DC",
"J$	c #9D9B98",
"K$	c #3C3C3B",
"L$	c #0B0B0B",
"M$	c #D6D4CF",
"N$	c #DFDCD8",
"O$	c #DEDCD7",
"P$	c #9B9996",
"Q$	c #73726F",
"R$	c #191918",
"S$	c #464644",
"T$	c #D9D7D1",
"U$	c #D8D5CF",
"V$	c #6F6E6C",
"W$	c #696866",
"X$	c #070707",
"Y$	c #D0CDC8",
"Z$	c #DEDCD6",
"`$	c #DCDBD5",
" %	c #DCDAD4",
".%	c #C5C3BE",
"+%	c #D7D5CF",
"@%	c #D7D4CE",
"#%	c #9F998D",
"$%	c #424240",
"%%	c #969490",
"&%	c #E0DDD8",
"*%	c #444442",
"=%	c #545351",
"-%	c #C9C9C4",
";%	c #9C9A97",
">%	c #7B7977",
",%	c #C9C8C3",
"'%	c #A8A6A2",
")%	c #D4D3CD",
"!%	c #C3C2BD",
"~%	c #605F5D",
"{%	c #454442",
"]%	c #D8D5D0",
"^%	c #D7D4CF",
"/%	c #D6D3CE",
"(%	c #9E988D",
"_%	c #EDEDED",
":%	c #E1E0DB",
"<%	c #C1BFBB",
"[%	c #4A4948",
"}%	c #080808",
"|%	c #494847",
"1%	c #D9D6D0",
"2%	c #83817E",
"3%	c #262625",
"4%	c #030303",
"5%	c #141413",
"6%	c #5B5A58",
"7%	c #D6D3CD",
"8%	c #9D978B",
"9%	c #D1D1D1",
"0%	c #D8D6D0",
"a%	c #D6D4CE",
"b%	c #9B958A",
"c%	c #999891",
"d%	c #A39E92",
"e%	c #A39D92",
"f%	c #A39D91",
"g%	c #A29C90",
"h%	c #A19B8F",
"i%	c #9D978C",
"j%	c #9B968A",
"k%	c #676359",
"                                                                                                ",
"                                                                                                ",
"                                                                                                ",
"                . . . . . . . . . . . . . . . . . . . . . . . . . .                             ",
"              . + @ # # # # # # # # # # # # # # # # # # # # $ % & * .                           ",
"              . @ # # # # # # # # # # # # # # # # # # # # # # $ & = - .                         ",
"              . # # # # # # # ; ; ; ; ; ; ; ; ; ; ; ; ; ; ; ; > & , ' ) .                       ",
"              . # # # # # ; > ! ! ! ! ! ! ! ! ! ! ! ! ! ! ! ! ~ & ~ { ] ] . .                   ",
"              . # # # ; > ! ~ ^ / / / / / / / / / / / / / ( ( _ & ~ = : < [ .                   ",
"              . # ; > ! ~ } / ( ( ( ( | 1 1 1 1 1 _ _ _ 2 2 3 4 & ~ # = : [ ) .                 ",
"              . # ! ~ } / ( 5 6 7 7 7 7 7 _ 3 3 3 3 8 8 9 9 0 a & ~ # # = b c ] .               ",
"              . # } ^ d ( e 1 _ f g 2 3 3 4 4 9 a h h h i i j k & ~ # # = l m ' n o             ",
"              . # / p 5 1 7 g q q q r s t t u u u v v w x x x y z @ ^ | @ @ A B C D .           ",
"              . # e E f g 2 r F t G G H H I x J K L L L M N N O P . . . . . . . . . . .         ",
"              . # , _ 2 Q G R G G S T k w U V V M W W O O X Y Z `  ...+.@.#.$.%.&.*.=..         ",
"              . # , 2 q R -.;.K L L >.,.'.K y ).!.N ~.~.~.{.].^./.(._.:.<.[.}.|.1.2.3..         ",
"        . . . . . 4.2 5.6.7.].8.9.0.a.b.!.c.N d.N N e.f.].Y Y /.Z g.h.i.j.k.l.m.n.o.p..         ",
"      q.r.s.t.u.v.. . w.x.y.z.z.A._.B.C.D.E.~.O F.e.e.~.G.^.^.Z H.I.I.9.i.J.K.L.M.N.O..         ",
"    . P.Q.R.S.. T.U.V.. . W.X.X.Y.Z.`. +.+C.9.Z ~.e.++@+Y /.Z Z #+$+%+&+*+=+-+;+>+,+'+.         ",
"  . )+!+~+{+]+^+/+V.V.V.V.. (+(+(+_+:+<+[+}+|+1+Z 2+3+^.^.4+5+$+$+$+(.6+7+8+9+0+a+b+c+.         ",
"  . d+e+f+g+h+i+. j+k+k+V.V.l+i+i+m+n+o+p+q+r+s+t+u+#+#+I.I.h.1+&+&+t+v+w+x+y+J.0+z+A+.         ",
"  . B+C+]+D+E+F+G+H+I+H+H+j+J+i+K+L+M+N+O+P+Q+R+S+T+(.g.h.h.(.U+9.V+6+W+X+Y+Z+`+ @.@+@.         ",
"  . @@#@$@%@&@i+G+*@=@H+j+j+-@L+X.X.;@>@,@'@)@!@~@{@(.g.(.&+&+9.t+6+6+W+X+]@^@9+/@(@+@.         ",
"  . _@#@$@:@<@[@. U.U.v.v.}@|@1@1@V.G+2@3@4@5@6@7@8@1+(.1+&+V+V+9@W+W+*+0@a@^@`+b@(@c@.         ",
"  . d@]+%@<@i+e@. v.f@g@f@h@i@j@k@l@m@n@o@p@q@r@7@*+9.%+V+V+6+s@s@t@u@v@w@x@^@y@z@A@c@.         ",
"  . B@$@<@i+i+^+C@j@j@j@j@. D@E@q.F@G@H@I@J@K@L@x+M@6+&+&+N@O@O@u@u@P@w+w@Q@^@R@ @S@c@.         ",
"    . %@i+i+T@. U@j@j@. . V@W@X@Y@Z@`@ #.#}.+#`+@#O@O@6+6+6+O@t@u@u@M@X+##$#%#&#b@(@c@.         ",
"      *#=#-#;#. >#. . ,#'#)#!#~#{#I@]#.#^#/#(#_#w+6+6+s@s@s@W+:#*+*+v@X+x+<#9+R@0+[#c@.         ",
"        . . . . . }#|#1#2#3#4#5#'#6#7#8#9#0#a#@#:#W+6+O@W+:#:#:#v@M@w+0@b#Z+y@c#0+[#c@.         ",
"              . d#e#f#g#h#q@h#%.i#j#k#l#m#n#o#p#q#r#W+u@P@P@*+w+w+X+s#w@]@t#u#c#0+v#c@.         ",
"              . % w#x#y#z#^#A#B#C#D#E#F#G#s+v@H#I#8@P@*+v@M@J#X+X+X+w@8+]@Z+R@c#(@[#c@.         ",
"              . K#L#M#N#O#R+/#P#Q#R#G#x+W+s@*+S#T#u@U#U#v@w+0@V#w@w@w@8+W#X#c#Y#(@Z#c@.         ",
"              . { `# $.$k.+$@$#$G#x@P@O@O@s@O@ #$$*+v@V#%$&$*$=$-$8+;$>$,$'$)$!$(@~$c@.         ",
"              . {$]$^$/$($_$:$<$M@v+V+N@N@s@P@[$}$v@v@|$1$2$R@3$4$5$6$7$8$9$0$a$b$c$c@.         ",
"              . | 7@d$e$$#f$=+g$w+*+W+P@*+*+w+h$r@w@i$j$9+x+x+]@]@k$'$>+y@c#l$m$n$o$p$.         ",
"              . ~ M@@#s+g$=+w@w+v@q$q$w+w@w@r$s$t$t$u$v$w$Q@x$x$x$X#y$z$A$B$C$c$D$E$F$.         ",
"              . ; 7+w+G$@#w+q$w+X+X+w@w@H$I$J$K$k$w$L$M$x$x$X#N$O$O$~$P$Q$R$S$T$E$U$F$.         ",
"              . # v@M@w+w+X+X+w@I$I$I$8+t$t$V$W$Q@x$X$Y$N$O$Z$c#c#c#`$ %(@.%*$E$+%@%#%.         ",
"              . d X+0@V#w@w@8+8+b#b#]@k$Q@Q@$%%%&%N$*%=%-%M$;%>%,%T#'%)%!%~%{%]%^%/%(%.         ",
"              . _%5$8+:%:%b#:%]@k$k$Q@<#<#<#z.<%O$y@-%[%Y.}%|%,+1%2%3%4%5%6%b+@%7%7%8%.         ",
"              . 9%:%k$k$Q@k$Q@<#<#<#<#X#X#O$y@y@&#c#Y#Y#b@l$[#[#[#Z#Z#c$T$0%U$^%a%7%b%.         ",
"              . c%d%c@e%f%e%p$g%g%g%g%g%g%g%g%g%g%g%g%g%g%g%g%g%g%g%g%h%F$#%#%i%i%j%k%.         ",
"                . . . . . . . . . . . . . . . . . . . . . . . . . . . . . . . . . . . .         ",
"                                                                                                ",
"                                                                                                ",
"                                                                                                ",
"                                                                                                ",
"                                                                                                "};
